<svg width="14" height="14" viewBox="0 0 14 14" fill="none" xmlns="http://www.w3.org/2000/svg">
<path d="M5.75687 0.756836C5.44255 1.79688 5.41625 2.90271 5.68079 3.95651C5.94533 5.01032 6.4908 5.97262 7.25907 6.74089C8.02734 7.50916 8.98964 8.05463 10.0434 8.31917C11.0973 8.58371 12.2031 8.55741 13.2431 8.24309C12.9416 9.23446 12.3885 10.1308 11.6376 10.8449C10.8868 11.559 9.96376 12.0665 8.95852 12.3179C7.95327 12.5693 6.90005 12.5561 5.90142 12.2796C4.9028 12.003 3.99282 11.4726 3.26011 10.7399C2.5274 10.0071 1.99693 9.09716 1.72038 8.09854C1.44383 7.09991 1.43062 6.04669 1.68203 5.04144C1.93344 4.0362 2.44091 3.11319 3.15501 2.36233C3.86911 1.61147 4.7655 1.05835 5.75687 0.756836Z" stroke="#5D5D5D" stroke-width="1.5" stroke-linecap="round" stroke-linejoin="round"/>
</svg>
